<?xml version="1.0" encoding="UTF-8"?>
<svg width="649px" height="125px" viewBox="0 0 649 125" version="1.1" xmlns="http://www.w3.org/2000/svg" xmlns:xlink="http://www.w3.org/1999/xlink">
    <!-- Generator: Sketch 53.1 (72631) - https://sketchapp.com -->
    <title>automizely</title>
    <desc>Created with Sketch.</desc>
    <g id="-logo" stroke="none" stroke-width="1" fill="none" fill-rule="evenodd">
        <path d="M60.9054907,86.5327569 L60.609833,86.5327569 C58.1460063,89.8232699 54.8445281,92.4406842 50.7052993,94.3850782 C46.5660705,96.3294722 42.0326974,97.3016547 37.1050441,97.3016547 C31.1918601,97.3016547 25.943988,96.1799057 21.3612704,93.9363741 C16.7785528,91.6928425 12.910403,88.7762952 9.75670482,85.1866447 C6.60300669,81.5969942 4.18849277,77.5337702 2.51309064,72.9968508 C0.837688502,68.4599314 0,63.8482967 0,59.1618085 C0,54.6747454 0.886964296,50.1877495 2.6609195,45.7006864 C4.4348747,41.2136232 6.9479402,37.1254715 10.2001914,33.4361084 C13.4524426,29.7467454 17.419144,26.7554148 22.1004147,24.462027 C26.7816854,22.1686391 32.0295575,21.0219624 37.8441884,21.0219624 C43.166054,21.0219624 47.7979787,22.0440004 51.7401013,24.0881069 C55.682224,26.1322135 58.6387716,28.6997722 60.609833,31.7908602 L60.9054907,31.7908602 L60.9054907,22.9663467 L76.2796922,22.9663467 L76.2796922,95.3572704 L60.9054907,95.3572704 L60.9054907,86.5327569 Z M16.8175699,58.561181 C16.8175699,61.8015252 17.4064145,64.8208915 18.5841214,67.6193706 C19.7618283,70.4178496 21.3811509,72.8480713 23.4421379,74.9101085 C25.5031249,76.9721457 27.9075737,78.6168412 30.6555564,79.8442443 C33.4035391,81.0716474 36.3477621,81.6853397 39.4883137,81.6853397 C42.5307231,81.6853397 45.4013406,81.0716474 48.1002521,79.8442443 C50.7991637,78.6168412 53.1790773,76.9721457 55.2400643,74.9101085 C57.3010513,72.8480713 58.920374,70.4178496 60.0980808,67.6193706 C61.2757877,64.8208915 61.8646323,61.8015252 61.8646323,58.561181 C61.8646323,55.3208369 61.2757877,52.3014706 60.0980808,49.5029915 C58.920374,46.7045125 57.3010513,44.2742908 55.2400643,42.2122536 C53.1790773,40.1502164 50.7991637,38.5055209 48.1002521,37.2781178 C45.4013406,36.0507147 42.5307231,35.4370224 39.4883137,35.4370224 C36.3477621,35.4370224 33.4035391,36.0507147 30.6555564,37.2781178 C27.9075737,38.5055209 25.5031249,40.1502164 23.4421379,42.2122536 C21.3811509,44.2742908 19.7618283,46.7045125 18.5841214,49.5029915 C17.4064145,52.3014706 16.8175699,55.3208369 16.8175699,58.561181 Z M83.4872222,23.4244724 L98.7502269,23.4244724 L98.7502269,63.3800989 C98.7502269,66.0339914 99.1905014,68.442117 100.071064,70.6045479 C100.951626,72.7669789 102.174611,74.6590775 103.740055,76.2809007 C105.3055,77.9027239 107.139977,79.1559322 109.243543,80.040563 C111.347108,80.9251938 113.572941,81.3675026 115.921107,81.3675026 C118.269273,81.3675026 120.495106,80.9251938 122.598672,80.040563 C124.702237,79.1559322 126.536715,77.9027239 128.102159,76.2809007 C129.667603,74.6590775 130.890588,72.7669789 131.77115,70.6045479 C132.651713,68.442117 133.091987,66.0339914 133.091987,63.3800989 L133.091987,23.4244724 L148.354992,23.4244724 L148.354992,64.7070385 C148.354992,69.7199466 147.449983,74.2167525 145.639938,78.1975913 C143.829893,82.1784301 141.432843,85.5203187 138.448715,88.2233574 C135.464587,90.926396 132.015769,93.0150764 128.102159,94.4894611 C124.188548,95.9638459 120.128238,96.7010272 115.921107,96.7010272 C111.713976,96.7010272 107.653666,95.9638459 103.740055,94.4894611 C99.8264448,93.0150764 96.3776273,90.926396 93.3934993,88.2233574 C90.4093713,85.5203187 88.0123208,82.1784301 86.2022759,78.1975913 C84.3922311,74.2167525 83.4872222,69.7199466 83.4872222,64.7070385 L83.4872222,23.4244724 Z M155.562522,37.9844822 L155.562522,23.4174615 L164.512894,23.4174615 L164.512894,1.80188249 L180.058278,1.80188249 L180.058278,23.4174615 L191.128475,23.4174615 L191.128475,37.9844822 L180.058278,37.9844822 L180.058278,95.782661 L164.512894,95.782661 L164.512894,37.9844822 L155.562522,37.9844822 Z M197.981768,59.1618085 C197.981768,54.3756078 198.865829,49.68919 200.633977,45.1024143 C202.402126,40.5156386 204.956079,36.4524146 208.295915,32.9126203 C211.63575,29.3728261 215.761367,26.5061343 220.67289,24.312459 C225.584413,22.1187836 231.134351,21.0219624 237.322869,21.0219624 C243.511388,21.0219624 249.061326,22.1187836 253.972848,24.312459 C258.884371,26.5061343 263.009989,29.3728261 266.349824,32.9126203 C269.68966,36.4524146 272.243613,40.5156386 274.011761,45.1024143 C275.77991,49.68919 276.66397,54.3756078 276.66397,59.1618085 C276.66397,63.9480092 275.77991,68.6344271 274.011761,73.2212028 C272.243613,77.8079785 269.68966,81.8712025 266.349824,85.4109968 C263.009989,88.950791 258.884371,91.8174828 253.972848,94.0111581 C249.061326,96.2048335 243.511388,97.3016547 237.322869,97.3016547 C231.134351,97.3016547 225.584413,96.2048335 220.67289,94.0111581 C215.761367,91.8174828 211.63575,88.950791 208.295915,85.4109968 C204.956079,81.8712025 202.402126,77.8079785 200.633977,73.2212028 C198.865829,68.6344271 197.981768,63.9480092 197.981768,59.1618085 Z M213.598083,58.561181 C213.598083,61.8015252 214.16268,64.8208915 215.291891,67.6193706 C216.421102,70.4178496 218.016702,72.8480713 220.078739,74.9101085 C222.140776,76.9721457 224.595546,78.6168412 227.443121,79.8442443 C230.290696,81.0716474 233.383705,81.6853397 236.722242,81.6853397 C240.060778,81.6853397 243.153788,81.0716474 246.001363,79.8442443 C248.848938,78.6168412 251.303707,76.9721457 253.365745,74.9101085 C255.427782,72.8480713 257.023382,70.4178496 258.152593,67.6193706 C259.281804,64.8208915 259.846401,61.8015252 259.846401,58.561181 C259.846401,55.3208369 259.281804,52.3014706 258.152593,49.5029915 C257.023382,46.7045125 255.427782,44.2742908 253.365745,42.2122536 C251.303707,40.1502164 248.848938,38.5055209 246.001363,37.2781178 C243.153788,36.0507147 240.060778,35.4370224 236.722242,35.4370224 C233.383705,35.4370224 230.290696,36.0507147 227.443121,37.2781178 C224.595546,38.5055209 222.140776,40.1502164 220.078739,42.2122536 C218.016702,44.2742908 216.421102,46.7045125 215.291891,49.5029915 C214.16268,52.3014706 213.598083,55.3208369 213.598083,58.561181 Z M283.8715,50.2255107 C283.8715,45.7040642 284.590511,41.6741397 286.028553,38.1356163 C287.466595,34.597093 289.375691,31.5992223 291.755899,29.1419145 C294.136106,26.6846066 296.912973,24.8170806 300.086583,23.5392805 C303.260193,22.2614804 306.632104,21.6225899 310.202415,21.6225899 C315.657057,21.6225899 320.26864,22.80208 324.037302,25.1610956 C327.805964,27.5201112 330.384484,30.5671272 331.772938,34.3022352 L332.070463,34.3022352 C333.458917,30.5671272 336.037436,27.5201112 339.806098,25.1610956 C343.57476,22.80208 348.186343,21.6225899 353.640986,21.6225899 C357.211297,21.6225899 360.583207,22.2614804 363.756817,23.5392805 C366.930427,24.8170806 369.707294,26.6846066 372.087502,29.1419145 C374.46771,31.5992223 376.376806,34.597093 377.814848,38.1356163 C379.25289,41.6741397 379.9719,45.7040642 379.9719,50.2255107 L379.9719,94.8991447 L364.500628,94.8991447 L364.500628,50.3729484 C364.500628,46.0480866 363.310542,42.7307707 360.930335,40.4209013 C358.550127,38.1110318 355.77326,36.9561145 352.59965,36.9561145 C348.830988,36.9561145 345.731806,38.1356046 343.302011,40.4946201 C340.872216,42.8536357 339.657336,46.8344148 339.657336,52.4370767 L339.657336,94.8991447 L324.186064,94.8991447 L324.186064,52.4370767 C324.186064,46.8344148 322.971185,42.8536357 320.54139,40.4946201 C318.111595,38.1356046 315.012412,36.9561145 311.243751,36.9561145 C308.07014,36.9561145 305.293273,38.1110318 302.913066,40.4209013 C300.532858,42.7307707 299.342772,46.0480866 299.342772,50.3729484 L299.342772,94.8991447 L283.8715,94.8991447 L283.8715,50.2255107 Z M388.380685,23.4244724 L403.396373,23.4244724 L403.396373,94.8991447 L388.380685,94.8991447 L388.380685,23.4244724 Z M387.17943,8.70909872 C387.17943,6.30657672 388.030311,4.25445329 389.732097,2.55266687 C391.433883,0.850880447 393.486007,0 395.888529,0 C398.291051,0 400.343174,0.850880447 402.044961,2.55266687 C403.746747,4.25445329 404.597628,6.30657672 404.597628,8.70909872 C404.597628,11.1116207 403.746747,13.1637442 402.044961,14.8655306 C400.343174,16.567317 398.291051,17.4181974 395.888529,17.4181974 C393.486007,17.4181974 391.433883,16.567317 389.732097,14.8655306 C388.030311,13.1637442 387.17943,11.1116207 387.17943,8.70909872 Z M445.04572,37.8966168 L413.227184,37.8966168 L413.227184,23.4244724 L470.916867,23.4244724 L435.975951,80.4270003 L470.024758,80.4270003 L470.024758,94.8991447 L410.253489,94.8991447 L445.04572,37.8966168 Z M550.595047,79.6526278 C546.241443,85.1368161 541.220031,89.4243899 535.530661,92.5154779 C529.841291,95.6065658 523.731494,97.2019422 517.201086,97.3016547 C510.967516,97.3016547 505.377175,96.2048335 500.429897,94.0111581 C495.482619,91.8174828 491.326967,88.950791 487.962818,85.4109968 C484.598669,81.8712025 482.026123,77.8079785 480.245102,73.2212028 C478.464082,68.6344271 477.573585,63.9480092 477.573585,59.1618085 C477.573585,54.3756078 478.464082,49.68919 480.245102,45.1024143 C482.026123,40.5156386 484.598669,36.4524146 487.962818,32.9126203 C491.326967,29.3728261 495.482619,26.5061343 500.429897,24.312459 C505.377175,22.1187836 510.967516,21.0219624 517.201086,21.0219624 C520.961018,21.0219624 525.017725,21.8196506 529.37133,23.4150508 C533.724935,25.010451 537.756906,27.453371 541.467365,30.743884 C545.177823,34.034397 548.269826,38.2471875 550.743465,43.382382 C553.217104,48.5175765 554.453905,54.6248764 554.453905,61.704465 L554.453905,64.5462574 L494.790028,64.5462574 C494.987919,67.3382078 495.754736,69.8808388 497.090501,72.1742266 C498.426266,74.4676145 500.083579,76.4618348 502.06249,78.1569476 C504.041402,79.8520603 506.317116,81.1732313 508.8897,82.1205002 C511.462285,83.0677691 514.084303,83.5413965 516.755833,83.5413965 C520.911547,83.5413965 524.74563,82.569214 528.258198,80.62482 C531.770765,78.680426 534.862768,75.9134452 537.534298,72.3237947 L550.595047,79.6526278 Z M536.43508,51.0533373 C534.757605,45.6955006 532.044083,41.6532649 528.294433,38.9265087 C524.544782,36.1997525 520.203147,34.8363949 515.269396,34.8363949 C510.335646,34.8363949 506.043347,36.2475896 502.392372,39.0700214 C498.741396,41.8924533 496.274558,45.886852 494.991783,51.0533373 L536.43508,51.0533373 Z M577.046967,1.80188249 L577.046967,96.7010272 L561.661435,96.7010272 L561.661435,1.80188249 L577.046967,1.80188249 Z M583.884653,23.4244724 L599.147657,23.4244724 L599.147657,65.4437381 C599.147657,71.4606114 600.761997,75.800586 603.990726,78.4637922 C607.219455,81.1269984 611.181926,82.4585816 615.878259,82.4585816 C621.846515,82.4585816 626.27372,80.7817732 629.160008,77.4281061 C632.046296,74.074439 633.489418,69.5865107 633.489418,63.9641865 L633.489418,23.4244724 L648.752422,23.4244724 L648.752422,92.8154428 C648.752422,98.3391298 647.676196,103.073648 645.52371,107.019138 C643.371224,110.964629 640.680657,114.21961 637.451929,116.784179 C634.2232,119.348748 630.725463,121.247487 626.958613,122.480453 C623.191763,123.713418 619.645106,124.329892 616.318538,124.329892 C612.307087,124.329892 608.80935,123.984667 605.825222,123.294206 C602.841094,122.603745 600.174987,121.617387 597.82682,120.335103 C595.478654,119.052818 593.39958,117.548623 591.589535,115.82247 C589.77949,114.096318 587.993932,112.246897 586.232807,110.274152 L599.147657,102.284573 C601.593664,104.651868 604.088553,106.501289 606.6324,107.832892 C609.176247,109.164495 612.111411,109.830286 615.43798,109.830286 C617.981826,109.830286 620.403337,109.435743 622.702583,108.646645 C625.001829,107.857547 627.007524,106.698576 628.719729,105.169699 C630.431933,103.640821 631.801677,101.692764 632.828999,99.3254699 C633.856322,96.9581755 634.369976,94.1963734 634.369976,91.0399809 L634.369976,87.1931467 L634.076456,87.1931467 C631.043408,90.6454511 627.937027,93.1360047 624.757218,94.6648823 C621.577409,96.19376 617.541559,96.9581873 612.649546,96.9581873 C608.638095,96.9581873 604.895761,96.2184189 601.422432,94.7388599 C597.949103,93.2593009 594.9161,91.1632904 592.323333,88.4507656 C589.730566,85.7382407 587.675951,82.384624 586.159427,78.3898147 C584.642903,74.3950053 583.884653,69.8824181 583.884653,64.8519174 L583.884653,23.4244724 Z" id="automizely" fill="#FFFFFF" fill-rule="nonzero"></path>
    </g>
</svg>